<?xml version="1.0" encoding="utf-8"?>
<!-- Generator: Adobe Illustrator 24.1.0, SVG Export Plug-In . SVG Version: 6.00 Build 0)  -->
<svg version="1.1" id="Layer_1" xmlns="http://www.w3.org/2000/svg" xmlns:xlink="http://www.w3.org/1999/xlink" x="0px" y="0px"
	 viewBox="0 0 356.67 166.05" style="enable-background:new 0 0 356.67 166.05;" xml:space="preserve">
<style type="text/css">
	.st0{fill:#231F20;}
</style>
<path class="st0" d="M27.43,76.4H7.11v35.59h8.66V98.45h11.66c6.06,0,11.05-4.94,11.05-11.05C38.48,81.34,33.49,76.4,27.43,76.4z
	 M27.43,89.79H15.77v-4.74h11.66c1.27,0,2.34,1.07,2.34,2.34C29.77,88.72,28.7,89.79,27.43,89.79z"/>
<path class="st0" d="M49.52,107.61h14.51l1.68,4.38h9.37L61.34,76.4h-9.17l-13.7,35.59h9.37L49.52,107.61z M56.76,88.67l3.97,10.29
	h-7.89L56.76,88.67z"/>
<path class="st0" d="M92.5,83.38c3.51-0.87,7.43,0.41,9.83,3.11c1.32-1.27,2.7-2.55,3.97-3.82l2.9-2.8
	c-2.75-2.19-6.01-3.67-9.42-4.33c-3.31-0.66-6.77-0.61-10.03,0.31c-2.65,0.71-5.19,1.93-6.98,3.97c-1.68,1.78-2.65,4.23-2.7,6.67
	c0,2.44,0.87,4.89,2.55,6.67c1.58,1.78,3.77,2.85,6.01,3.62s4.58,1.22,6.82,1.99c1.43,0.46,2.9,1.07,3.62,2.65
	c0.05,0.1,0.1,0.25,0.15,0.46c0.36,2.39-2.09,3.31-4.12,3.36c-3.72,0.1-7.49-1.42-10.13-4.07l-6.98,6.47
	c3.67,3.46,8.66,5.3,13.7,5.65c3.05,0.2,6.26-0.1,9.11-1.32s5.4-3.36,6.77-6.11c1.43-2.8,1.53-6.21,0.1-8.96
	c-0.76-1.53-1.99-2.75-3.36-3.72c-0.97-0.66-2.04-1.22-3.11-1.68c-2.65-1.12-5.5-1.73-8.2-2.6c-1.17-0.41-2.34-0.81-3-1.99
	l-0.15-0.36C89.34,84.75,91.02,83.73,92.5,83.38z"/>
<path class="st0" d="M129.87,105.22c-3.72,0.1-7.49-1.42-10.13-4.07l-6.98,6.47c3.67,3.46,8.66,5.3,13.7,5.65
	c3.06,0.2,6.26-0.1,9.11-1.32s5.4-3.36,6.77-6.11c1.43-2.8,1.53-6.21,0.1-8.96c-0.76-1.53-1.99-2.75-3.36-3.72
	c-0.97-0.66-2.04-1.22-3.11-1.68c-2.65-1.12-5.5-1.73-8.2-2.6c-1.17-0.41-2.34-0.81-3-1.99l-0.15-0.36
	c-0.51-1.78,1.17-2.8,2.65-3.16c3.51-0.87,7.43,0.41,9.83,3.11c1.32-1.27,2.7-2.55,3.97-3.82l2.9-2.8
	c-2.75-2.19-6.01-3.67-9.42-4.33c-3.31-0.66-6.77-0.61-10.03,0.31c-2.65,0.71-5.19,1.93-6.98,3.97c-1.68,1.78-2.65,4.23-2.7,6.67
	c0,2.44,0.87,4.89,2.55,6.67c1.58,1.78,3.77,2.85,6.01,3.62c2.24,0.76,4.58,1.22,6.82,1.99c1.43,0.46,2.9,1.07,3.62,2.65
	c0.05,0.1,0.1,0.25,0.15,0.46C134.35,104.25,131.91,105.17,129.87,105.22z"/>
<path class="st0" d="M167,145.7c0,1.27-1.04,2.31-2.33,2.31s-2.33-1.04-2.33-2.31v-8.13h-4.05v8.13c0,3.52,2.86,6.38,6.38,6.38
	c3.53,0,6.4-2.86,6.4-6.38v-8.13H167V145.7z"/>
<path class="st0" d="M179.25,141c1.19-0.3,2.55,0.14,3.38,1.07l0.26,0.29l0.79-0.76c0.34-0.33,0.69-0.65,1.01-0.97l1.42-1.37
	l-0.33-0.27c-1.08-0.86-2.38-1.46-3.76-1.73c-1.36-0.27-2.75-0.23-4,0.12c-1.23,0.33-2.19,0.88-2.84,1.62
	c-0.7,0.74-1.11,1.76-1.13,2.8c0,1.06,0.39,2.08,1.07,2.79c0.56,0.64,1.34,1.11,2.45,1.49c0.44,0.15,0.88,0.27,1.33,0.39
	c0.43,0.11,0.86,0.23,1.29,0.37c0.57,0.18,0.96,0.38,1.16,0.82c0.01,0.02,0.02,0.06,0.02,0.06c0.03,0.19-0.01,0.34-0.11,0.46
	c-0.19,0.23-0.61,0.38-1.1,0.39c-1.35,0.05-2.65-0.5-3.59-1.45l-0.26-0.26l-3.22,2.99l0.29,0.27c1.38,1.31,3.32,2.11,5.46,2.26
	c0.23,0.02,0.46,0.02,0.69,0.02c1.1,0,2.1-0.19,2.96-0.56c1.23-0.53,2.24-1.44,2.77-2.51c0.61-1.19,0.62-2.64,0.04-3.76
	c-0.29-0.58-0.76-1.11-1.41-1.56c-0.37-0.25-0.79-0.48-1.25-0.68c-0.68-0.29-1.4-0.49-2.09-0.69c-0.36-0.1-0.72-0.2-1.06-0.31
	c-0.41-0.14-0.76-0.26-0.92-0.55l-0.05-0.11c-0.03-0.11-0.02-0.21,0.03-0.3C178.64,141.24,178.92,141.08,179.25,141z"/>
<path class="st0" d="M192.46,137.59l-5.52,14.34h4.38l0.64-1.67h5.02l0.64,1.67h4.38l-5.54-14.34H192.46z M195.43,146.2h-1.92
	l0.95-2.5L195.43,146.2z"/>
<polygon class="st0" points="266.96,112.8 266.96,77.25 257,77.25 241.63,101.98 226.31,77.25 216.3,77.25 216.3,112.8 
	225.96,112.8 225.96,95.12 237,112.9 246.27,112.9 257.31,95.12 257.31,112.8 "/>
<path class="st0" d="M272.58,112.9h9.37l1.68-4.38h14.51l1.68,4.38h9.37L295.44,77.3h-9.16L272.58,112.9z M290.86,89.58l3.97,10.29
	h-7.89L290.86,89.58z"/>
<polygon class="st0" points="325.69,77.25 316.16,77.25 316.16,112.8 324.82,112.8 324.82,91.72 338.77,112.9 348.24,112.9 
	348.24,77.41 339.59,77.41 339.59,98.33 "/>
<path class="st0" d="M188.6,76.26l15.67-27.04c1.48,1.08,2.92,2.19,4.29,3.32c0.32,0.56,0.78,1.05,1.39,1.4l0,0
	c0.19,0.11,0.39,0.2,0.6,0.28c5.08,4.42,9.26,9.1,12.17,13.71c0.71,1.12,1.69,2.07,2.82,2.72c3.89,2.25,8.89,0.91,11.14-2.98
	l16.74-28.98c1.12-1.94,1.4-4.19,0.78-6.33c-0.59-2.05-1.93-3.76-3.76-4.81c-1.14-0.66-2.44-1.03-3.77-1.08
	c-7.55-0.3-16.46-2.65-25.42-6.63l3.43-5.94c0.5-0.86,0.63-1.89,0.38-2.85c-0.26-0.96-0.89-1.78-1.75-2.28l-9.44-5.45l0,0
	c-1.79-1.04-4.09-0.42-5.13,1.37l-3.59,6.22c-0.03-0.02-0.06-0.04-0.08-0.05c-3.88-2.24-8.88-0.9-11.13,3l-8.48,14.68
	c-1.09,1.89-1.38,4.09-0.82,6.19c0.56,2.11,1.9,3.86,3.78,4.95c0.03,0.02,0.06,0.03,0.09,0.05L177.96,57.9l-10.53-18.17
	c0.03-0.02,0.06-0.03,0.09-0.05c1.88-1.09,3.22-2.84,3.78-4.95c0.56-2.11,0.27-4.3-0.82-6.19L162,13.85c-2.25-3.9-7.24-5.24-11.13-3
	c-0.03,0.02-0.06,0.04-0.08,0.05l-3.59-6.22c-1.04-1.79-3.33-2.41-5.13-1.37l0,0l-9.44,5.45c-0.86,0.5-1.49,1.32-1.75,2.28
	c-0.26,0.96-0.12,1.99,0.38,2.85l3.43,5.94c-8.97,3.98-17.87,6.33-25.42,6.63c-1.33,0.05-2.63,0.43-3.77,1.08
	c-1.83,1.06-3.17,2.77-3.76,4.81c-0.62,2.14-0.34,4.39,0.78,6.33l16.74,28.98c2.25,3.89,7.25,5.23,11.14,2.98
	c1.14-0.66,2.11-1.6,2.82-2.72c2.91-4.61,7.09-9.29,12.17-13.71c0.2-0.07,0.4-0.16,0.6-0.28l0,0c0.6-0.35,1.07-0.84,1.39-1.4
	c1.38-1.13,2.81-2.24,4.29-3.32l15.67,27.04l-42.68,73.64c-1.23,2.13-1.56,4.61-0.92,6.98c0.64,2.38,2.16,4.36,4.29,5.59l0,0
	c4.39,2.54,10.04,1.03,12.57-3.37l37.38-64.49l37.38,64.49c2.54,4.39,8.18,5.91,12.57,3.37l0,0c2.13-1.23,3.65-3.21,4.29-5.59
	c0.64-2.38,0.31-4.86-0.92-6.98L188.6,76.26z M227.88,30.39c6.51,2.1,12.82,3.34,18.49,3.56c0.12,0,0.22,0.03,0.31,0.08
	c0.14,0.08,0.26,0.23,0.31,0.4c0.06,0.22-0.01,0.38-0.07,0.49l-16.74,28.98c-0.25,0.43-0.71,0.34-0.89,0.24
	c-0.09-0.05-0.16-0.13-0.23-0.23c-3.03-4.8-7.25-9.65-12.33-14.23L227.88,30.39z M213.35,11.69l2.95,1.7l-1.81,3.14
	c-1-0.53-1.99-1.08-2.97-1.65L213.35,11.69z M191.95,32.29l8.48-14.68c0.19-0.32,0.61-0.43,0.92-0.23c2.06,1.39,4.22,2.73,6.41,3.99
	c2.11,1.22,4.25,2.36,6.4,3.42c0.11,0.06,0.21,0.11,0.32,0.16c2.08,1.02,4.17,1.96,6.25,2.82l-9.84,17.04
	c-1.79-1.38-3.64-2.72-5.56-4.01c-0.1-0.07-0.2-0.14-0.3-0.2c-2-1.34-4.06-2.62-6.18-3.84c-2.18-1.26-4.41-2.45-6.64-3.54
	c-0.2-0.1-0.29-0.28-0.33-0.4C191.85,32.68,191.83,32.49,191.95,32.29z M142.57,11.69l1.84,3.19c-0.99,0.57-1.98,1.12-2.97,1.65
	l-1.81-3.14L142.57,11.69z M126.86,63.92c-0.06,0.1-0.14,0.18-0.23,0.23c-0.18,0.11-0.65,0.19-0.89-0.24L109,34.93
	c-0.06-0.1-0.13-0.27-0.07-0.49c0.05-0.17,0.16-0.32,0.31-0.4c0.09-0.05,0.19-0.08,0.31-0.08c5.67-0.23,11.98-1.46,18.49-3.56
	l11.14,19.29C134.11,54.27,129.89,59.12,126.86,63.92z M150.9,40.59c-0.11,0.06-0.21,0.13-0.3,0.2c-1.92,1.29-3.78,2.63-5.56,4.01
	l-9.84-17.04c2.09-0.86,4.17-1.8,6.25-2.82c0.11-0.05,0.22-0.1,0.32-0.16c2.15-1.06,4.29-2.2,6.4-3.42
	c2.19-1.27,4.35-2.61,6.41-3.99c0.31-0.2,0.73-0.09,0.92,0.23l8.48,14.68c0.11,0.2,0.1,0.39,0.07,0.51c-0.03,0.13-0.12,0.3-0.33,0.4
	c-2.23,1.09-4.46,2.29-6.64,3.54C154.96,37.97,152.9,39.26,150.9,40.59z M157.89,45.01c0.96-0.6,1.93-1.18,2.92-1.75l12.82,22.12
	l-1.97,3.39L157.89,45.01z M134.09,155.35c-0.47,0.81-1.51,1.09-2.32,0.62l0,0c-0.53-0.31-0.72-0.78-0.79-1.03
	c-0.07-0.25-0.14-0.76,0.17-1.29l63.98-110.39c0.99,0.57,1.96,1.15,2.92,1.75L134.09,155.35z M224.96,154.94
	c-0.07,0.25-0.26,0.73-0.79,1.03l0,0c-0.81,0.47-1.85,0.19-2.32-0.62L182.3,87.13l1.97-3.39l40.52,69.91
	C225.09,154.18,225.02,154.68,224.96,154.94z"/>
<g>
	<polygon class="st0" points="245.39,130.84 241.25,130.84 241.25,132.58 241.89,132.58 240.68,134.41 239.49,132.58 240.25,132.58 
		240.25,130.84 235.33,130.84 235.33,132.58 236.28,132.58 239.15,136.88 239.15,138.46 238.27,138.46 238.27,140.2 242.7,140.2 
		242.7,138.46 241.83,138.46 241.83,136.86 244.63,132.58 245.39,132.58 245.45,132.58 246.26,132.58 246.26,138.46 245.39,138.46 
		245.39,140.2 254.39,140.2 254.39,137.18 252.6,137.18 252.6,137.93 248.93,137.93 248.93,136.74 252.16,136.34 252.16,134.06 
		248.93,134.46 248.93,133.11 252.6,133.11 252.6,133.86 254.39,133.86 254.39,130.84 245.45,130.84 	"/>
	<polygon class="st0" points="258.06,134.32 257.81,134.08 257.81,133.35 258.06,133.11 261.19,133.11 261.5,133.35 261.5,133.86 
		263.56,133.86 263.56,130.84 261.55,130.84 261.55,131.21 261.12,130.84 256.6,130.84 255.13,132.15 255.13,135.28 256.6,136.59 
		260.76,136.59 261.01,136.83 261.01,137.68 260.76,137.93 257.5,137.93 257.19,137.68 257.19,137.18 255.13,137.18 255.13,140.2 
		257.14,140.2 257.14,139.82 257.57,140.2 262.22,140.2 263.69,138.89 263.69,135.63 262.22,134.32 	"/>
	<polygon class="st0" points="264.43,133.86 266.22,133.86 266.22,133.11 267.37,133.11 267.37,138.46 266.5,138.46 266.5,140.2 
		270.92,140.2 270.92,138.46 270.05,138.46 270.05,133.11 271.2,133.11 271.2,133.86 272.99,133.86 272.99,130.84 264.43,130.84 	
		"/>
	<polygon class="st0" points="273.6,132.58 274.47,132.58 274.47,138.46 273.6,138.46 273.6,140.2 282.6,140.2 282.6,137.18 
		280.8,137.18 280.8,137.93 277.14,137.93 277.14,136.74 280.36,136.34 280.36,134.06 277.14,134.46 277.14,133.11 280.8,133.11 
		280.8,133.86 282.6,133.86 282.6,130.84 273.6,130.84 	"/>
	<path class="st0" d="M291.27,136.74l1.44-1.04v-3.54l-1.47-1.31h-8.04v1.74h0.88v5.88h-0.88v1.74h4.43v-1.74h-0.87v-1.06l1.7-0.24
		l1.7,3.04h3.45v-1.74h-1.35L291.27,136.74z M290.04,134.49l-0.27,0.24l-2.95,0.4v-2.02h2.95l0.27,0.24V134.49z"/>
	<path class="st0" d="M294.08,130.84v1.74h0.88v5.88h-0.88v1.74h8.04l1.47-1.31v-6.74l-1.47-1.31H294.08z M300.91,137.68l-0.27,0.24
		h-3.01v-4.81h3.01l0.27,0.24V137.68z"/>
	<path class="st0" d="M310.66,130.84h-3.26l-2.71,7.62h-1.02v1.74h4.41v-1.74h-0.99l0.25-0.71h2.94l0.24,0.71h-0.71v1.74h4.43v-1.74
		h-0.87L310.66,130.84z M307.98,135.95l0.83-2.31l0.82,2.31H307.98z"/>
	<polygon class="st0" points="318.9,132.58 319.54,132.58 318.32,134.41 317.13,132.58 317.9,132.58 317.9,130.84 312.97,130.84 
		312.97,132.58 313.92,132.58 316.8,136.88 316.8,138.46 315.92,138.46 315.92,140.2 320.34,140.2 320.34,138.46 319.47,138.46 
		319.47,136.86 322.28,132.58 323.1,132.58 323.1,130.84 318.9,130.84 	"/>
</g>
<g>
	<polygon class="st0" points="26.72,131.36 27.6,131.36 27.6,137.26 26.72,137.26 26.72,138.99 35.73,138.99 35.73,135.97 
		33.94,135.97 33.94,136.71 30.27,136.71 30.27,135.38 33.49,135.38 33.49,133.11 30.27,133.11 30.27,131.9 33.94,131.9 
		33.94,132.65 35.73,132.65 35.73,129.63 26.72,129.63 	"/>
	<polygon class="st0" points="39.31,133.11 39.05,132.86 39.05,132.13 39.31,131.9 42.57,131.9 42.75,132.07 42.75,132.65 
		44.81,132.65 44.81,129.63 42.82,129.63 42.82,130 42.4,129.63 37.84,129.63 36.38,130.93 36.38,134.06 37.84,135.38 42,135.38 
		42.27,135.61 42.27,136.48 42,136.71 38.64,136.71 38.44,136.51 38.44,135.97 36.38,135.97 36.38,138.99 38.39,138.99 
		38.39,138.62 38.81,138.99 43.48,138.99 44.94,137.69 44.94,134.41 43.48,133.11 	"/>
	<polygon class="st0" points="53.86,132.65 53.86,129.63 45.3,129.63 45.3,132.65 47.09,132.65 47.09,131.9 48.25,131.9 
		48.25,137.26 47.38,137.26 47.38,138.99 51.78,138.99 51.78,137.26 50.92,137.26 50.92,131.9 52.07,131.9 52.07,132.65 	"/>
	<path class="st0" d="M72.69,133.43v-2.51l-1.47-1.3H63.3v1.73h0.87v5.9h-0.81H63.3H62.5l-2.71-7.63h-3.28l-2.71,7.63h-1.02v1.73
		h4.42v-1.73h-0.99l0.24-0.71h2.93l0.26,0.71h-0.72v1.73h4.36h0.07h7.97l1.47-1.3v-2.88l-0.72-0.76L72.69,133.43z M57.11,134.74
		l0.83-2.32l0.82,2.32H57.11z M66.85,131.9h2.89l0.27,0.23v0.77l-0.24,0.22h-2.92V131.9z M70.13,136.48l-0.26,0.23h-3.02v-1.56h3.03
		l0.24,0.22V136.48z"/>
	<polygon class="st0" points="79.58,136.71 77.01,136.71 77.01,131.36 77.87,131.36 77.87,129.63 73.46,129.63 73.46,131.36 
		74.33,131.36 74.33,137.26 73.46,137.26 73.46,138.99 81.37,138.99 81.37,135.97 79.58,135.97 	"/>
	<polygon class="st0" points="81.59,131.36 82.47,131.36 82.47,137.26 81.59,137.26 81.59,138.99 86,138.99 86,137.26 85.14,137.26 
		85.14,131.36 86,131.36 86,129.63 81.59,129.63 	"/>
	<polygon class="st0" points="89.58,133.11 89.33,132.86 89.33,132.13 89.58,131.9 92.85,131.9 93.02,132.07 93.02,132.65 
		95.08,132.65 95.08,129.63 93.09,129.63 93.09,130 92.67,129.63 88.11,129.63 86.65,130.93 86.65,134.06 88.11,135.38 
		92.27,135.38 92.55,135.61 92.55,136.48 92.27,136.71 88.91,136.71 88.71,136.51 88.71,135.97 86.65,135.97 86.65,138.99 
		88.67,138.99 88.67,138.62 89.08,138.99 93.75,138.99 95.21,137.69 95.21,134.41 93.75,133.11 	"/>
	<polygon class="st0" points="101.74,131.36 102.61,131.36 102.61,133.23 99.41,133.23 99.41,131.36 100.27,131.36 100.27,129.63 
		95.86,129.63 95.86,131.36 96.73,131.36 96.73,137.26 95.86,137.26 95.86,138.99 100.27,138.99 100.27,137.26 99.41,137.26 
		99.41,135.51 102.61,135.51 102.61,137.26 101.74,137.26 101.74,138.99 106.16,138.99 106.16,137.26 105.29,137.26 105.29,131.36 
		106.16,131.36 106.16,129.63 101.74,129.63 	"/>
	<polygon class="st0" points="106.82,131.36 107.69,131.36 107.69,137.26 106.82,137.26 106.82,138.99 115.82,138.99 115.82,135.97 
		114.03,135.97 114.03,136.71 110.36,136.71 110.36,135.38 113.59,135.38 113.59,133.11 110.36,133.11 110.36,131.9 114.03,131.9 
		114.03,132.65 115.82,132.65 115.82,129.63 106.82,129.63 	"/>
	<path class="st0" d="M116.47,129.63v1.73h0.87v5.9h-0.87v1.73h8.04l1.46-1.3v-6.76l-1.46-1.3H116.47z M123.3,136.48l-0.26,0.23
		h-3.02v-4.81h3.02l0.26,0.23V136.48z"/>
</g>
<path class="st0" d="M134.55,121.19c0-2.21-1.79-4-4-4H6.75c-2.21,0-4,1.79-4,4s1.79,4,4,4h123.8
	C132.76,125.19,134.55,123.39,134.55,121.19z"/>
<path class="st0" d="M349.17,117.19h-123.8c-2.21,0-4,1.79-4,4s1.79,4,4,4h123.8c2.21,0,4-1.79,4-4S351.38,117.19,349.17,117.19z"/>
<path class="st0" d="M6.75,71.68h103.8c2.21,0,4-1.79,4-4s-1.79-4-4-4H6.75c-2.21,0-4,1.79-4,4S4.54,71.68,6.75,71.68z"/>
<path class="st0" d="M241.37,67.68c0,2.21,1.79,4,4,4h103.8c2.21,0,4-1.79,4-4s-1.79-4-4-4h-103.8
	C243.17,63.68,241.37,65.47,241.37,67.68z"/>
</svg>
